<?xml version="1.0" encoding="UTF-8"?>
<svg width="1056" height="286.86614173228344" xmlns="http://www.w3.org/2000/svg" xmlns:svg="http://www.w3.org/2000/svg">
 <title>Mt. Rainier</title>
 <g>
  <title>Layer 1</title>
  <g id="svg_3"/>
  <g id="svg_4">
   <path id="svg_7" d="m62.973047,194.414821c9.62978,-3.3608 19.51877,-5.93006 28.99093,-9.66982c9.75168,-0.91275 18.26015,-5.7843 27.44715,-8.60124c4.69889,-1.98784 12.78833,-5.29123 14.84294,-5.18077c2.05462,-0.1442 10.29848,0.5788 15.30622,2.05969c9.4314,-0.06985 14.67953,-9.58565 25.78648,-11.20407c8.48026,-5.7522 18.69091,-2.86574 28.07941,-5.19109c10.54054,-0.81346 17.6751,-10.36758 28.62302,-9.75715c9.37907,-1.10352 19.39399,-2.95992 27.81958,-7.00421c10.39821,-2.61656 17.90262,-6.39495 27.72177,-7.59043c11.13739,0.77692 27.25766,6.49311 36.06702,-1.40055c7.74102,-4.84688 16.40036,-7.65489 24.38562,-12.03357c8.70831,-2.5345 16.56289,-7.24124 24.58261,-11.22093c4.40854,-1.23396 7.75876,-3.94892 10.75402,-7.13672c2.9953,-3.1878 5.63575,-6.84845 8.62476,-9.97383c8.60132,-3.72329 15.55786,-9.14242 21.89633,-15.99692c4.22495,-5.01803 5.92804,-12.40131 13.711,-13.72632c6.17905,-6.14171 13.02686,-11.44311 19.55872,-17.23416c2.93142,-9.02994 13.72354,-11.02371 21.23446,-15.18167c4.37107,-1.94855 8.47278,-2.50899 12.57325,-3.33057c4.10043,0.83375 8.19958,2.67969 12.05621,5.28924c1.37619,0.84296 11.6702,-0.79061 13.08594,-0.14257c0.89889,0.45136 3.58923,3.1603 6.53094,4.40814c2.68704,0.3565 6.1348,1.03459 6.51114,1.75361c0.74909,1.64794 0.71103,1.45062 1.46332,2.48021c8.47778,3.60304 17.32037,8.8888 20.97626,11.3697c4.41253,1.60376 8.77545,3.31593 13.07562,5.18103c4.30011,1.86511 8.53748,3.88315 12.69891,6.09865c7.82154,0.62811 8.5412,12.75434 19.71979,16.9588c7.41284,7.85786 17.66834,11.40646 25.14764,19.01305c9.33979,5.1649 18.84607,8.64892 29.95807,7.58087c7.22596,0.3257 15.79029,12.35792 23.40662,17.25064c7.51007,2.01111 15.7738,1.09487 22.6471,6.50564c8.06884,6.04262 15.59179,11.31074 22.77685,18.4424c6.07092,7.47171 14.77502,12.03679 24.63348,9.65019c10.3739,0.15739 19.70526,-6.02437 30.19147,-2.19351c12.78278,1.60016 24.73309,6.83268 35.99701,12.89605c8.60437,3.18743 15.20251,11.92746 25.18048,10.54486c12.12262,0.97512 24.612,1.15181 35.91107,6.27474c8.75757,3.36152 18.64777,1.68088 26.82514,6.74699c12.98834,4.92009 16.32019,6.44773 28.78888,12.91837c9.95422,3.60281 24.35858,7.44055 31.49591,13.89965c7.97442,5.86455 17.04748,9.46724 25.90985,13.16714c9.2572,8.04112 -19.45587,2.79116 -23.6911,3.00871c-17.59986,-0.39243 -28.67719,8.37575 -38.28302,10.89981c-10.68567,3.71587 -19.95057,4.61212 -29.33936,-0.27089c-10.72436,-3.29825 -22.11334,-3.74727 -33.22626,-4.51688c-6.41046,0.6301 -16.854,-5.60786 -20.98455,-0.59498c2.52392,9.63484 4.24145,13.94633 -8.29786,10.25532c-9.87304,-3.28872 -19.30291,-7.56833 -28.87976,-11.58011c-12.32733,-3.28941 -24.19745,-9.55076 -37.3385,-8.26696c-11.51434,-0.71849 -22.90844,0.91526 -34.30859,1.37738c-12.44641,-0.37101 -25.24976,-1.57405 -37.33722,2.17662c-9.97076,2.77157 -19.99793,5.40023 -29.81842,8.46684c-11.06848,7.33029 -24.9848,3.28961 -37.31207,3.21548c-10.86133,-0.39755 -21.53211,-1.83503 -31.81025,-5.51878c-17.95416,-5.61914 -36.57891,-8.42569 -54.93664,-12.31264c-12.11844,-2.60682 -24.32843,-5.35447 -35.28558,-11.39204c-8.2323,-3.68739 -16.16584,-8.01415 -24.47626,-11.37894c-6.82352,-4.50422 -17.43726,-12.70595 -23.93527,-3.4994c-8.91074,4.32811 -19.10465,4.24206 -26.66043,11.4544c-5.40329,9.29635 -14.43662,14.64058 -25.5004,12.46808c-10.24298,2.62046 -20.41116,0.06385 -30.48257,-2.02974c-11.42261,-2.47036 -22.4437,-6.52928 -34.19645,-7.28869c-10.39523,-2.19428 -20.95468,-3.31285 -31.51059,-4.397c-11.02386,-1.39139 -22.87451,0.4293 -32.93992,-5.25168c-11.67797,-1.64879 10.08894,-11.70108 -2.76395,-11.63835c-13.16516,-0.54931 -26.92758,-0.20618 -39.06767,5.43223c-9.776,4.74163 -23.16535,-2.81955 -31.10491,4.998c-3.38797,9.22747 -14.54173,5.49506 -21.9456,7.27701c-9.595,4.76524 -20.36006,4.65819 -30.69818,6.37869c-8.52884,1.71547 -17.24831,2.78936 -25.63158,-0.84581c-14.22178,-4.06163 -28.33805,-10.4571 -43.46265,-9.08381c-12.18279,-0.00644 -24.36027,1.74604 -36.53378,0.9152c8.96916,-2.48484 16.88396,-7.13818 24.17964,-12.91575c1.44555,-0.89844 2.9273,-1.81372 4.58676,-2.26088z" stroke-opacity="0.660714" stroke-width="1px" fill-rule="evenodd" fill="#6fb792"/>
   <path id="svg_8" d="m318.396517,133.885721c-1.6207,0.76532 -4.26059,1.32095 -8.43512,1.17553c-7.41803,-0.25839 -13.81146,-2.21925 -21.77292,-2.70619c1.85977,4.1133 4.60626,11.22181 5.58243,15.12651c1.40567,5.62269 -1.88712,10.30761 -5.76252,12.24529c-2.60507,1.30255 -4.89358,2.44681 -7.20309,3.60155c-2.77316,1.38658 -4.78931,2.39467 -7.20312,3.60156c-3.52941,1.76471 -2.89515,4.98654 -2.16092,7.92342c0.64,2.56001 4.59127,5.3116 5.76248,6.4828c2.2738,2.27379 4.15057,1.81833 5.76251,5.04217c1.65683,3.31371 1.39148,6.67936 0.72028,9.36405c-0.95835,3.83345 -0.83597,5.6468 1.44064,7.92341c2.28601,2.28601 4.30139,3.59644 7.20313,4.32187c3.62426,0.90607 4.55227,1.93051 7.20309,-0.7203c1.97565,-1.97567 1.40814,-5.89241 0.72031,-8.64374c-0.45374,-1.81494 -3.98691,-4.70722 -5.04218,-5.76248c-3.1908,-3.1908 2.92877,0.02375 4.32187,0.7203c3.49365,1.74683 4.60248,2.45093 8.64374,1.44062c3.14724,-0.78682 3.60153,-3.66974 3.60153,-7.2031c0,-2.59448 -4.15527,-6.31622 -5.04218,-7.20311c-2.93167,-2.9317 -2.13369,-3.60155 1.44065,-3.60155c2.58917,0 6.07779,1.95842 7.9234,2.88123c2.86648,1.43324 3.67007,5.31625 4.32187,7.92343c1.17218,4.68872 5.61313,-3.72446 5.76248,-4.32187c0.72,-2.87999 2.86447,-4.2547 3.60156,-7.20311c0.45322,-1.81293 7.19657,-3.60155 0,-3.60155c-4.46939,0 -6.51816,-0.03537 -8.64374,-2.16095c-2.43377,-2.43377 -3.60153,-2.87503 -3.60153,-7.20311c0,-3.69714 1.62631,-5.41354 2.88123,-7.9234c1.45871,-2.91742 1.44061,-5.34004 1.44061,-9.36404c0,-2.53798 -2.7825,-6.28534 -3.60153,-7.92343c-0.32214,-0.64426 0.13504,-3.51152 0.13504,-4.23181zm202.22937,-95.0566c2.91324,6.79208 -37.86383,82.24966 -57.62314,68.41598c4.37109,-1.94855 32.96338,-52.57059 17.97559,-82.20461c4.10043,0.83375 8.19958,2.67969 12.05621,5.28924c1.37619,0.84296 11.6702,-0.79061 13.08594,-0.14257c0.89889,0.45136 3.58923,3.1603 6.53094,4.40814c2.68704,0.3565 6.1348,1.03459 6.51114,1.75361c0.74908,1.64794 0.71103,1.45062 1.46332,2.48021zm325.08325,141.06644c-2.69128,-0.8905 -10.41406,-1.31389 -18.84735,-1.77568c-5.88239,0.93962 -12.68524,-3.15002 -21.71423,-9.01192c-8.48871,-4.33124 -15.96222,-7.7336 -21.3852,-9.74125c-0.80267,2.23379 0.2934,5.1656 -5.94256,8.28358c-2.27918,1.13959 -2.16089,5.76498 -2.16089,8.64372c0,2.95417 -3.39112,5.3416 -4.3219,7.20311c-1.22833,2.4567 -3.79071,4.05629 -5.76245,5.04218c-2.44861,1.22432 -2.89209,5.08563 -3.60157,7.92341c-0.8573,3.4291 -0.00219,5.04001 2.16095,7.20311c2.20093,2.20099 7.18042,0.01134 8.64368,-0.7203c1.79395,-0.89697 2.91168,-5.82327 3.60156,-7.20311c0.797,-1.59395 6.79364,-1.44061 9.36408,-1.44061c2.0647,0 5.79193,2.34837 7.9234,2.88124c5.61603,1.404 7.39264,-1.21334 8.64374,5.04216c0.59308,2.96547 -7.46369,2.3908 -0.72034,5.76249c2.76099,1.3805 5.03571,2.1593 7.92346,2.88124c3.13636,0.78411 4.60901,2.05266 7.9234,2.88124c3.3512,0.8378 6.12061,1.53017 8.64374,2.16094c1.25269,0.31319 3.23963,6.47926 3.60157,7.20311c0.2995,0.59901 5.67016,-4.94986 5.76245,-5.04218c2.30127,-2.30125 4.74218,-2.08593 7.92346,-2.88122c3.42883,-0.85724 6.81775,1.52434 9.36401,2.16092c3.92798,0.98198 6.00153,0.83983 8.64374,2.16093c3.23242,1.6162 3.60156,3.06693 3.60156,7.20309c0,2.75075 -4.14453,4.2332 -5.76251,5.04218c-2.92444,1.46225 -6.98022,0.59596 -9.36401,0c-3.14105,-0.78525 -7.54779,0 -10.80469,0c-3.63342,0 -7.31104,0.44246 -10.80469,1.44063c-2.85559,0.81592 44.23047,8.7166 46.82025,9.36404c3.31342,0.82837 7.3642,0.49996 9.36402,0c2.88122,-0.7203 -2.16089,-5.67381 -2.16089,-8.64374c0,-3.44085 -0.13263,-7.73352 -0.72034,-10.08435c-0.70258,-2.81022 -3.99493,-3.27461 -5.76251,-5.04216c-2.28778,-2.28784 -3.60785,-4.34717 -4.32184,-7.20312c-0.91492,-3.65976 -3.53339,-5.36826 -5.76251,-6.48279c-2.75098,-1.37552 -3.99237,-3.07666 -6.48279,-4.32187c-3.6709,-1.83545 -4.80994,-6.01828 -6.48279,-9.36404c-1.22369,-2.44736 -5.42212,-9.92404 -7.02301,-11.52498z" stroke-width="1px" fill-rule="evenodd" fill="#27935c"/>
   <path id="svg_9" d="m555.610317,57.302231c-2.85315,-1.20485 -9.32702,-3.95284 -13.11993,-5.33109c-6.49396,-4.43957 -15.9794,-9.49025 -20.62363,-11.15868c-4.60647,2.06545 -9.53158,6.08965 -14.12866,8.16732c-2.60019,1.89318 -5.40137,3.52543 -8.14703,5.15715c-1.14035,2.08399 -5.13059,7.30075 0.00662,6.59908c2.92215,-0.72506 7.02051,0.92745 3.97055,4.25396c-0.73981,3.59198 -7.65393,4.18696 -3.58646,8.02037c-1.02221,4.22258 -9.737,2.80778 -8.67276,8.41596c1.30082,4.96041 -4.3367,4.41492 -7.21893,5.27808c0.70563,5.075 -6.3204,5.06679 -6.09921,9.73997c-0.16718,2.10426 -0.00821,7.06898 1.95492,2.67155c2.92469,-3.09076 3.86799,-8.26919 8.50199,-9.41175c0.74509,3.58147 -2.99118,8.19867 -6.56397,9.9367c-3.23806,3.21895 -7.53058,4.46258 -11.04275,7.22957c-2.50897,3.94662 -7.65476,3.3133 -11.33841,1.65358c-3.96988,-1.48438 -7.76492,1.00955 -11.15195,2.77054c-4.2316,0.25812 -5.92102,4.33567 -9.07818,6.40729c-3.68448,1.42568 -6.27005,4.92193 -9.65091,6.35127c-1.86518,-3.07623 3.03824,-8.72094 -1.06937,-10.50968c-2.27682,3.5197 -6.68091,2.93593 -10.39917,2.90554c-3.22632,0.23974 -7.47549,-0.99967 -9.54282,2.29972c1.77088,1.71203 2.05594,4.456 -1.4291,3.71018c-4.80875,-3.19766 -8.09049,2.45743 -12.33307,3.76441c-3.40192,2.44527 -10.24158,0.83114 -10.50223,6.52446c-2.03833,0.72882 -5.607,-5.45878 -7.28531,-0.45759c-2.81467,1.93995 -10.46085,-0.26332 -8.95587,5.63655c-0.88016,2.7946 -6.1525,0.4377 -7.63831,3.74962c-3.99365,0.67347 -7.82516,1.79492 -10.75543,4.82351c-3.65262,2.89615 -8.65903,1.61248 -12.71304,3.66683c-2.98383,0.77751 -7.68491,-3.4699 -7.63855,1.93745c0.76269,5.25308 -5.25037,2.88864 -7.92108,4.66316c-2.73957,2.53063 -5.95649,5.62034 -5.0517,9.75065c2.97827,2.09391 5.27002,5.78833 8.16427,7.41684c3.87555,-0.30636 7.41343,-2.25133 9.73114,-5.37088c3.10755,-2.45708 8.39155,2.84584 10.75089,-2.15133c2.3779,-2.80912 5.90478,-3.27041 7.1734,0.64226c3.5076,4.49416 -5.63208,2.94709 -7.94015,4.33852c-3.0109,3.42714 -9.01569,0.5059 -10.34461,6.17604c-0.80374,2.39712 -5.31763,4.36143 -4.82406,6.40791c4.32046,-0.81708 7.91204,-3.74838 11.95477,-5.38923c4.22186,-1.71196 8.47619,-4.27333 13.0516,-4.56699c-1.79321,3.50105 -1.22247,9.1324 -5.77447,10.78731c-2.48728,1.32858 -9.99417,2.09933 -7.88516,6.07657c2.94552,2.43399 5.42785,5.36253 7.92093,8.03204c4.6524,0.57074 8.21231,-2.99425 11.77475,-5.32748c2.03656,-2.83422 2.14715,-7.8907 6.37918,-8.38008c3.11053,0.35574 8.54541,-3.18427 10.23916,0.14195c-1.08761,5.01373 6.08048,3.7422 6.93854,0.2484c4.56485,-0.54982 9.50571,-1.49138 12.87317,-4.97438c-0.48541,-3.19803 -1.7269,-8.22513 3.28668,-7.95351c2.83481,-1.94263 7.06101,-2.23512 10.15482,-1.24886c-0.82614,4.00567 -3.46942,8.27459 -7.61557,9.3718c-5.12265,-0.20042 -1.34033,7.23164 1.64825,3.19032c3.19147,-3.76735 8.61817,-2.00068 12.7876,-3.77267c3.42648,-1.5789 7.17389,-1.66675 10.7475,-2.52109c3.26645,-1.56122 0.86374,-4.65263 -1.85254,-2.82715c-2.82861,1.04703 -6.10574,2.05953 -6.35138,-2.15669c-0.04114,-3.90739 -7.99738,-0.4805 -7.25522,-2.35922c4.30835,-2.18523 8.94568,-3.51305 13.37195,-5.4048c4.82776,-0.87287 8.41327,-4.62454 13.04706,-5.96419c3.20846,-1.80827 4.38318,-7.05255 8.92944,-5.87125c4.3143,-0.70193 7.83881,-4.5713 12.54898,-3.50193c1.72339,-0.19039 6.21411,1.67233 2.13763,1.73237c-3.08383,-0.67341 -9.54373,2.57942 -4.66644,5.33672c4.03104,0.38951 8.18045,-1.39853 11.5409,-3.51586c4.11969,-1.77493 8.36782,-3.21298 12.88531,-3.30633c4.85681,-0.81334 4.16184,-6.09996 2.13919,-9.10636c0.84158,-4.66185 6.82233,-5.59434 10.81784,-5.45225c4.45426,1.13957 7.66785,5.33594 11.1435,8.24864c2.30398,3.71909 7.07376,4.29219 10.93979,5.12375c4.61935,-1.40492 7.26434,2.01143 8.57635,6.03066c1.95755,2.53108 8.83371,2.41813 6.55527,7.02995c-3.02695,-0.32622 -9.97281,0.86479 -5.12671,4.63652c2.72589,1.4543 9.21521,2.41446 9.04529,-2.30252c-0.28736,-2.49687 -0.81971,-4.83161 1.22204,-6.61484c-0.31512,-2.75131 -9.89889,-4.83836 -4.15527,-7.38141c3.9007,-0.87959 8.89154,-7.14946 4.07532,-9.56647c-2.46582,0.70258 -6.23822,-0.02858 -3.45331,-3.03688c-0.89014,-4.20184 -5.91687,1.95385 -7.31479,-2.42022c-1.23462,-2.91341 2.00061,-8.04908 -3.45444,-6.78836c-2.0448,0.37992 -4.34118,-0.60481 -1.12427,-1.70536c3.94913,-0.47027 5.58585,-4.46351 1.59406,-6.53357c-3.38953,-0.1072 -3.90579,-2.80839 -1.17694,-4.62951c3.39404,-1.81165 8.18365,-5.2788 3.29089,-8.68699c-2.52246,-1.97041 -0.85388,-5.84844 1.96302,-3.09033c3.15734,2.77375 7.19787,3.69719 9.92285,6.61441c3.00201,0.73096 4.16217,-4.5446 6.55877,-0.15482c1.11127,3.43978 6.08613,-1.58913 4.57648,3.28625c-1.09283,4.23508 1.58148,8.0413 3.01209,11.81373c-2.40815,-0.81237 -5.37824,-5.43923 -8.12958,-5.62886c-1.19403,3.21498 -1.45715,7.82791 3.16748,7.68631c4.05664,0.27472 7.37012,1.65529 8.56146,5.90673c1.53656,4.07629 -3.42096,7.82162 0.62457,11.39546c4.61322,1.87173 4.70447,7.79794 9.13831,9.78049c2.70203,1.15904 6.06549,-2.03072 6.11322,2.58471c3.46619,2.86911 5.46686,7.32663 9.01971,9.89412c2.93335,1.85182 6.12598,2.95604 8.91431,0.26654c3.66443,0.28725 4.58624,5.49105 8.54877,6.19954c1.48956,3.13255 3.38904,6.60135 7.44977,6.08936c4.1864,-0.77295 6.13763,3.75627 9.53894,4.20819c2.42907,-1.43112 1.86389,-4.43785 -0.44165,-5.42125c1.82959,-4.85008 5.5448,6.15237 6.95227,-0.03073c4.66931,0.80188 -1.63007,6.95816 4.19537,6.48689c3.04993,1.53888 7.66864,-0.03972 7.75427,4.73381c1.79969,2.26248 0.33478,7.28905 4.77393,5.81532c2.81897,0.39142 3.474,5.62287 7.41839,4.15468c3.38239,-1.90402 7.13965,-2.40652 10.96064,-2.23419c3.00708,-2.03003 6.71429,4.05171 8.53827,1.72252c-2.50159,-3.55054 -6.23121,-6.40865 -9.65619,-9.12918c-4.40161,-1.92821 -3.34424,-9.25183 -9.5373,-8.69356c-2.66326,-0.23404 -6.16577,-3.30658 -5.64917,-5.46562c3.61744,2.46881 8.0232,2.33354 11.79932,4.28813c3.0481,3.03476 5.98651,6.52565 8.9419,9.68889c2.54608,2.8685 9.22985,-0.04164 8.93591,5.58914c-1.72394,4.12666 1.64062,10.39824 6.5404,8.81232c4.37928,-1.32282 8.98413,2.37198 13.14582,-0.30887c2.16656,-2.17314 6.21844,-1.88199 6.89886,1.51561c-4.0639,-0.228 -7.77118,1.28357 -11.64392,2.02615c-3.54883,0.21675 -7.04785,-3.24398 -10.50207,-0.94148c-1.06537,4.94197 4.66772,7.42072 8.86236,6.55083c3.32092,-0.16812 6.64252,0.35017 9.60797,1.87745c3.80335,0.0561 6.84192,3.20711 10.758,2.72509c5.70483,0.19711 10.31274,4.10839 15.89862,4.78924c2.52924,0.20769 8.42023,2.37015 8.82342,-0.86458c-3.78564,-2.80453 -8.75268,-3.77313 -12.95892,-5.97598c-5.31311,-1.42523 1.10413,-8.13167 -3.45941,-10.50981c-2.62714,-2.11967 -6.39142,6.9756 -5.72492,1.78949c0.77918,-1.96559 2.82233,-4.6889 -0.92993,-4.53789c-3.07287,0.55054 -5.12219,-0.67888 -6.58172,-3.37874c-4.04151,-0.34854 -8.1941,-0.17556 -12.26661,-0.0343c-2.6712,-0.71457 -2.50317,1.91014 -3.2312,2.97023c-1.78125,-2.16725 -5.37646,-3.00795 -6.75323,-4.87593c2.45703,-1.57178 5.85461,-4.44397 1.64392,-6.45479c-1.69379,-2.16905 4.7655,-2.08717 2.20734,-4.98909c-1.92829,-3.52206 -2.87079,-9.66685 -7.8332,-9.79994c-5.04022,-1.03975 3.67298,-2.12825 5.41437,-1.12472c4.52613,-0.5994 8.45154,4.01135 12.87042,1.93313c2.94605,-2.80639 3.68366,-8.66762 8.56,-8.70099c3.89191,-0.22162 7.49231,-1.33226 10.25641,-4.06129c0.55017,-1.57401 -1.92059,-4.05019 1.36365,-2.93512c4.61835,1.56097 0.84076,-2.91347 -1.28778,-3.68935c-2.02716,-3.7296 -5.88813,-5.76153 -8.48822,-9.003c-3.73712,-0.98372 -5.55438,-3.9101 -6.9831,-7.3649c-3.86615,-3.07915 -8.44049,0.84263 -12.38659,1.85377c-3.24439,1.45731 -7.0437,1.47431 -8.36005,5.33754c-2.66608,1.19873 -8.83954,1.19483 -9.61236,-1.13919c2.19964,-0.17334 3.95288,-2.12352 0.669,-2.56154c-3.14422,1.01963 -9.21631,-1.58998 -9.97375,2.87885c0.81219,4.42128 -5.00403,4.16006 -7.91852,5.10585c-3.87836,-0.0963 -3.84235,8.27124 -8.52643,4.92386c-3.31268,-2.36089 -7.00171,-6.56879 -11.03326,-2.75127c-3.63202,2.89949 -8.086,3.32794 -12.55024,3.48451c-4.01434,1.24033 -5.47863,-3.50944 -8.13226,-5.04017c-5.12292,-0.03125 -5.56653,5.85258 -1.06201,7.35934c2.38269,-2.31534 4.77283,-1.94411 5.41559,1.563c-0.146,3.50588 8.09552,5.15285 3.93609,7.93795c-3.48809,-2.44188 -7.2052,-5.43099 -11.30676,-7.4206c-4.07812,-1.6497 -6.83356,-5.19325 -10.17602,-7.88528c-2.3006,-3.88814 -5.76642,-6.53104 -9.64795,-8.54059c-1.8382,-3.49658 -4.01429,-6.90603 -6.66986,-9.83964c-3.0445,-2.7712 -0.53296,-7.6383 -2.01832,-11.16131c-0.28033,-2.56274 -6.59881,-4.58503 -1.87731,-6.33489c2.65734,-1.16479 8.09893,-5.77275 8.29449,0.0212c0.24219,3.99727 -5.26251,6.13054 -3.2561,10.48786c0.47808,1.6743 1.88806,6.8855 1.52319,2.39111c-0.80432,-3.17476 1.96777,-7.30991 4.75006,-7.88152c0.10498,4.18233 1.61011,7.97158 3.67035,11.54526c1.08453,4.05066 2.17841,8.28212 5.07495,11.42904c1.85815,3.8408 6.84638,0.12785 7.19159,-2.03406c-2.28857,-3.15553 -6.56244,-4.64514 -7.95093,-8.42491c1.1416,-4.77239 -3.36566,-6.27306 -6.12268,-8.80471c-0.90222,-4.14515 2.21814,-7.61386 4.99786,-10.2127c1.61493,-4.11911 -0.85876,-8.33564 -2.92822,-11.79671c-1.16962,-4.31699 -5.1842,-6.60741 -6.76868,-10.60936c-1.17736,-2.70729 -5.88708,-5.12229 -1.56939,-7.57534c-0.2616,-3.81983 -4.53571,-6.66637 -3.68933,-11.00104c-3.61414,-1.97791 -7.25367,-3.76687 -8.35498,-8.14208c-3.45325,-1.52446 -7.74689,-1.36219 -9.79297,-5.19622c-1.28723,-1.43775 -1.06592,-3.46765 -1.91004,-5.15704l0,-0.00001zm-171.07348,45.07631c-1.51154,1.84043 -7.15332,6.1573 -10.87897,7.11413c-8.94638,4.64951 -19.98767,10.26836 -24.53085,11.27473c2.37369,-0.27928 5.1673,-0.07881 6.53177,2.17835c1.37552,1.91143 2.12399,4.46388 4.48687,5.44753c2.07493,1.03863 4.6091,1.9594 6.81586,0.74637c1.97974,-1.00682 3.79514,-2.33185 5.57697,-3.64253c1.6662,-1.62288 2.99484,-3.56622 3.97021,-5.6658c1.38776,-2.45418 4.42017,-3.42551 7.0979,-2.9614c2.99182,0.37679 6.60291,-0.0808 8.35455,-2.85256c1.2353,-1.52196 4.47348,-1.37305 4.13901,-3.96592c-0.13614,-2.73386 3.03046,-3.52993 4.99036,-4.50616c1.96161,-1.65614 3.92019,0.02786 5.6325,1.05469c2.31025,0.50005 3.18964,-2.18937 4.12589,-3.71981c1.67865,-1.49252 4.12357,-1.15363 6.20248,-1.43687c3.34336,-0.10369 6.92811,0.6655 10.00061,-1.06894c3.2667,-1.41575 4.92481,-4.72401 6.5148,-7.6921c0.974,-2.06823 2.39014,-4.13689 2.04084,-6.54005c-0.37162,-2.76774 1.42019,-5.10067 2.52066,-7.48171c2.65219,-3.69297 3.62594,-8.2494 5.89947,-12.15163c1.01346,-2.16507 1.91269,-4.38095 2.80393,-6.59838c-2.25031,0.71039 -3.89618,2.56493 -6.08774,3.42764c-3.01077,1.39039 -5.91943,2.98454 -8.61218,4.92618c-2.77292,1.70564 -5.13788,3.9865 -6.97058,6.67302c-2.13556,2.99451 -3.89933,6.31577 -6.79187,8.68748c-2.32764,2.26605 -5.26041,3.75153 -7.71366,5.84385c-2.20468,2.05793 -4.34418,4.42741 -7.33835,5.29991c-5.02942,2.34215 -9.56475,6.32082 -15.33743,6.62161c-1.20581,0.28768 -2.20264,0.87286 -3.44305,0.98837zm115.52267,44.22179c0.41156,5.46546 -11.61993,6.94841 -4.98376,12.58701c3.49469,2.593 14.4462,-7.22183 11.4277,1.04291c-2.67026,6.9516 -11.49567,5.15913 -16.82702,8.45965c-6.30936,3.43821 -12.45395,-0.67491 -18.55225,-2.24311c-3.88928,0.17828 -15.04907,-6.44472 -6.72006,-7.96132c7.66974,0.21472 14.76028,-2.8928 20.22131,-7.68564c4.3779,-0.58644 2.91394,-7.47032 8.87341,-5.96507c2.37146,0.09278 5.20819,-0.83988 6.56067,1.76557zm20.52887,21.24919c-5.47546,1.52446 -11.20215,-5.66766 -14.25769,1.1319c-6.57214,2.37277 -14.07217,9.69402 -20.85232,4.12766c-3.33615,3.3388 -15.79593,2.72035 -9.91941,9.9393c5.61561,3.65519 14.59583,-0.52738 18.70487,6.20292c4.34137,5.73011 12.69562,5.80784 19.27881,6.09836c5.82785,0.53757 11.34183,3.57475 16.77472,1.25955c2.61297,4.7031 4.68042,-0.14238 1.22882,-2.08625c0.74969,-4.18357 7.50958,4.68757 11.14203,1.83404c4.73236,-1.03699 17.50281,3.02966 13.81158,-5.55418c-4.69995,-4.99552 -5.98218,-15.25572 -14.92627,-12.26059c-6.05334,0.36294 -12.57663,-1.31848 -17.3836,-4.93024c-1.44162,-1.82657 -1.29731,-4.56169 -3.60154,-5.76247zm10.44449,41.77803c-6.36996,-2.84835 -13.95065,-3.18853 -19.44839,-7.56327c-6.39002,-2.65819 -13.53299,-0.96704 -20.25952,-1.42971c-4.35987,-1.46331 -9.72531,-6.81753 -14.85794,-3.65281c5.43826,2.50518 10.60607,5.02462 13.38281,10.37513c6.66635,1.8951 13.1297,3.78725 18.51816,8.307c5.71261,1.66233 12.68457,2.77027 18.16302,0.11065c2.99637,-0.73546 5.39163,-2.78383 4.50186,-6.14699zm31.33356,-53.30302c-2.12238,6.51483 4.0304,12.58887 10.25,14.66304c4.46808,3.66853 -4.88013,-2.6673 -6.68488,-2.82635c-2.93469,-2.90979 -13.737,-10.53238 -11.39856,-1.6623c3.9834,4.00055 -5.93908,-2.64219 -8.01342,0.27011c-6.5802,2.31118 -0.03107,10.72292 5.44976,9.7811c7.47339,1.55565 13.5705,7.30495 21.36182,7.60349c1.1637,2.10487 8.84808,6.3797 4.52191,1.3435c-3.31561,-4.47516 2.02942,-11.35473 -2.90936,-16.2168c-3.66834,-4.93328 -11.78259,-5.57168 -12.57727,-12.95579zm29.17255,29.53275c-4.49323,-1.81154 -16.05488,-2.35625 -8.89252,4.85668c3.00744,3.88241 10.95532,8.50255 11.29236,11.76928c-5.05823,-1.75522 -9.00891,-7.23284 -13.49634,-8.53163c1.1391,2.61007 3.85052,5.65861 -0.78864,2.71034c-6.04602,-1.19612 0.80671,5.41514 2.84619,6.78038c6.0918,4.45749 12.60694,8.31889 19.46705,11.3192c2.69604,2.32686 10.31713,4.91708 3.44091,0.98043c-3.24194,-2.94191 -11.76629,-5.76626 -10.93798,-9.88565c6.98504,2.73667 12.00164,9.49286 19.55554,11.27973c2.64447,2.33566 11.83349,6.31669 8.32116,-0.86277c2.31836,-6.32852 -5.20373,-12.53631 0.49091,-17.19018c-0.79224,-9.81264 -10.75012,-5.33952 -15.45178,-1.34068c-3.8216,0.18829 -6.86359,0.96009 -3.2414,4.68203c2.68909,7.12915 15.81592,1.80712 14.69159,11.12844c-2.26666,2.61093 -5.71557,-4.68438 -9.46917,-3.95621c-5.79126,-3.73221 -10.60535,-9.1913 -13.50599,-15.45583c-1.35577,-2.86953 -3.73547,-5.03653 -4.32189,-8.28357l0,0.00001zm48.2608,48.26084c-6.73798,0.42357 -4.31006,10.14287 1.44067,5.76247c4.1872,-2.01437 2.46747,-5.17989 -1.44067,-5.76247zm72.39129,-45.01944c-5.81793,-0.15252 -6.55017,9.25103 -12.35931,3.48676c-1.84137,-3.63892 -6.09778,-5.75903 -9.13794,-8.18533c5.12006,-1.62184 9.0257,3.80825 12.13318,5.77903c1.6626,-4.17054 7.69025,-7.847 9.36408,-1.08046l-0.00001,0zm-92.45257,-86.45916c6.43036,3.0512 15.6145,4.82944 21.94763,4.44733c-2.32556,3.81992 -6.69763,6.9539 -8.36914,11.42135c-7.00311,1.78956 -14.44629,3.10323 -21.27356,4.89844c-2.78668,-1.55438 -3.00879,-5.86254 -7.01581,-6.36896c-1.76855,-7.02546 7.36823,-5.26885 7.86511,-11.30322c1.71955,-1.68243 5.44501,-0.92544 6.84577,-3.09494zm141.64465,52.81366c1.48969,0.06213 2.94995,0.24632 5.51978,1.20257c3.20654,0.25595 8.66864,1.53862 11.4132,2.33342c-4.44299,0.69828 -10.18573,10.81415 -13.21722,11.12615c-1.00348,-4.39842 -2.875,-10.26609 -3.71576,-14.66214zm-7.77417,39.0478c-3.38104,6.33141 -12.47394,6.3853 -16.59625,12.15931c-6.59821,0.1549 -12.09125,11.75724 -18.2113,3.81951c-3.08234,-4.09346 -6.12281,-8.14672 -2.22315,-12.86814c2.86841,-6.16245 12.12769,0.96046 17.05926,1.1748c5.96924,-0.75725 14.60132,2.28784 15.77106,-5.44386c1.4643,-0.5297 2.97266,0.52101 4.20038,1.15838zm18.00775,-12.96554c-0.94848,1.00522 -10.77026,6.48065 -6.17755,-0.1091c1.05634,-3.26026 8.04852,-5.7596 6.17755,0.1091zm-9.72418,-3.24143c-3.65857,0.79988 -7.12457,1.91895 -4.87311,6.5914c2.46973,-1.03952 7.52484,-2.99118 4.87311,-6.5914zm53.30292,15.84683c-4.90827,0.72954 -8.72229,-9.02165 -1.86511,-10.13629c8.14575,-0.57507 1.66571,11.36595 10.05596,10.59293c8.43805,3.25596 -3.43115,12.7962 -8.55096,8.54725c-4.79419,-0.7281 -7.34662,-9.8296 -0.36017,-6.48278c2.40906,1.93408 7.75415,3.33995 3.52875,-1.09327c-0.3241,-1.32533 -1.58508,-1.83747 -2.80847,-1.42784zm-42.85846,15.12653c-3.82471,-1.82919 -15.56,-1.58246 -9.60535,4.44518c4.60461,-0.60688 11.40949,2.75074 14.77069,-0.12809c-0.7265,-2.1969 -3.81787,-2.51725 -5.16534,-4.31709zm-40.69751,10.44453c4.79577,-1.48248 12.99103,-0.70079 18.12652,2.78869c3.37519,1.12388 12.70142,5.64157 3.8429,5.49488c-7.44543,-0.19027 -15.05804,-3.10255 -21.25873,-7.03611l-0.71075,-1.24747l0.00006,0.00001zm36.73584,-0.00001c1.87237,-3.49916 2.18896,1.70645 -2.16095,0.00001c-4.34992,-1.70645 -12.00403,6.6996 -3.88788,5.94268c5.65228,-0.96598 4.17645,-2.44354 6.04883,-5.94269zm3.60156,1.8008c-3.11358,6.78358 8.84686,8.40735 13.76642,6.45565c7.52338,0.96238 15.55969,0.3351 22.53827,3.98353c5.65265,2.56996 16.02435,3.07037 18.48437,-3.95141c-1.06695,-8.1623 -12.34869,-4.84726 -18.04126,-7.86914c-7.12194,-3.55552 -13.56366,5.77576 -20.08477,-0.21537c-5.73884,-3.15349 -10.20038,5.94468 -16.66303,1.59674zm81.03491,-9.00389c-4.716,3.08309 -17.23468,-0.6191 -10.08593,-6.80069c4.35754,-1.86266 9.68701,2.39601 10.08593,6.80069zm-18.72808,12.96559c-1.80323,7.19284 8.13415,7.19287 12.48162,5.33397c-1.28082,-4.60651 -8.32202,-2.23645 -10.20141,-6.51944l-1.0343,0.43212l-1.24592,0.75335l0,0l0.00001,0zm57.26477,23.41011c-2.29877,-4.55271 -13.1474,-5.42995 -7.49274,-12.08211c6.31329,-3.38185 12.01343,4.55186 17.60486,-0.16489c4.64416,-1.23146 15.54394,0.91799 13.80084,6.92066c-5.63123,4.23539 -12.96881,5.89912 -20.04913,5.84689c-1.30024,-0.05936 -2.58881,-0.26857 -3.86383,-0.52055zm-2.88123,-51.8624c0.94519,7.87109 -9.41034,7.88258 -14.77948,8.98734c-9.3548,0.51832 -13.06702,-9.36277 -18.5993,-14.88755c-4.48127,-2.64554 -14.09113,0.03842 -15.2779,-5.92679c4.71802,-0.67337 8.20795,6.31092 13.5586,2.65748c7.67535,1.13461 15.2782,2.09275 22.85278,3.04689c3.60919,3.15322 10.42542,0.84303 12.2453,6.12263zm-51.86237,-3.9617c-2.94982,1.40472 -5.08416,-2.72868 -6.12268,-5.04219c-6.48419,0.14848 2.99579,4.82681 3.49195,7.79355c3.18408,2.92483 7.75128,-1.59104 2.63073,-2.75136zm-191.24261,-66.62877c1.02344,3.41001 3.92316,8.50768 8.37915,10.40933c-1.8418,2.25881 -7.01654,1.4702 -4.41742,6.51798c-4.44464,6.86961 -11.48621,-0.3458 -16.45282,-2.68208c-2.27563,0.8582 4.90698,6.82402 6.46832,9.18551c3.12146,6.75116 -6.32885,-0.03592 -8.02325,-2.18158c-3.24768,-3.32042 -9.14331,-3.51541 -6.8017,-9.53076c-0.82843,-5.30591 8.03516,-2.06082 7.27497,-8.34316c1.55072,-5.9081 9.13696,-5.27295 13.57275,-3.37524zm-402.29363,43.57881c-1.20593,4.57846 -5.12544,2.41901 -7.6423,0.42191c-5.60264,2.46468 -11.47868,4.21506 -16.48811,-0.78206c-7.34445,-4.01144 -15.40744,0.97537 -22.83438,2.42023c-3.11223,2.10982 -15.22902,1.25259 -7.0327,-2.47302c6.78956,-2.35776 14.41496,-1.93799 20.74904,-5.75477c8.29567,1.02111 15.79095,-5.11532 24.03094,-1.7974c2.89546,3.21424 5.65685,5.01976 9.21752,7.96511l-0.00001,0zm-60.86627,17.6476c-1.06575,0.50662 -15.7659,0.25289 -7.92341,-3.24138c2.72192,-0.02215 8.33435,-1.25184 7.92341,3.24138zm257.87133,-4.32185c-1.26032,1.89795 -9.85038,8.77807 -7.92344,0.36015c1.43097,-2.07831 5.80256,-1.08279 7.92344,-0.36015zm-38.53666,18.00776c-2.8735,0.6073 -4.68155,10.65213 -8.64373,4.32187c-5.29569,-5.46914 5.81668,-7.65985 8.64373,-4.32187zm68.06937,-170.35352c-0.38309,0.76622 -0.36014,3.85204 -0.36014,5.76249c0,1.63656 -0.36014,3.06119 -0.36014,5.04218c0,0.95208 -2.09188,2.02277 -2.52111,2.88124c-0.72339,1.44681 -1.07309,2.4916 -1.44062,3.96171c-0.33359,1.3344 -0.36017,3.21663 -0.36017,5.04217c0,2.34073 -0.44397,3.0489 -1.08044,4.32187c-0.72382,1.44762 -1.41482,2.05778 -1.80078,3.60155c-0.37616,1.50462 -1.4426,2.16887 -1.80078,3.60156c-0.33359,1.3344 -0.36017,3.21663 -0.36017,5.04217c0,1.80079 0,3.60156 0,5.40234c0,2.3771 -0.68896,2.45845 -1.44061,3.96172c-0.76834,1.53669 -1.08045,2.11997 -1.08045,4.32186c0,1.72042 0.06629,3.86677 0.36014,5.04217c0.42801,1.71209 0.37491,3.66061 0.72031,5.04218c0.54727,2.18909 -0.40503,3.28628 -1.44062,4.32186c-0.89624,0.89624 -0.81774,3.27106 -1.08047,4.32186c-0.48883,1.95536 -0.34692,2.89117 1.08047,3.96171c1.59449,1.19588 2.27231,1.0248 3.60154,0.36016c0.34686,-0.17343 0,-4.8196 0,-5.40234c0,-1.62979 -0.72031,-2.77176 -0.72031,-4.68201c0,-1.3979 -0.36014,-3.39977 -0.36014,-5.04218c0,-2.31608 0.69205,-2.76828 1.08045,-4.32187c0.41098,-1.64386 0.9898,-2.15833 1.44064,-3.9617c0.31882,-1.27528 1.13049,-2.72117 1.44061,-3.9617c0.39264,-1.57053 0,-3.77391 0,-5.40234c0,-1.10359 1.14575,-2.78217 1.44062,-3.96172c0.37973,-1.51883 -0.1185,-4.07565 -0.36014,-5.04217c-0.39548,-1.58194 -0.36017,-3.10207 -0.36017,-5.04218c0,-2.39033 1.28076,-4.14224 2.16095,-6.12264c0.58203,-1.30959 1.34933,-2.42981 2.16092,-3.2414c0.77719,-0.77718 1.08047,-2.84258 1.08047,-4.32187c0,-2.38037 0.35987,-2.8807 1.08045,-4.32186c0.70004,-1.40003 1.45248,-2.56844 1.80078,-3.96171c0.36294,-1.45166 0.36398,-3.22616 0,-4.68202c-0.2547,-1.0189 -1.48767,-1.90104 -2.52109,-2.52109zm7.92343,21.60933c-0.39603,-1.58413 3.56567,1.29712 3.9617,2.88124c0.40558,1.62226 0.32471,3.38326 0,4.68202c-0.33069,1.32277 -1.65894,2.23746 -2.16092,3.2414c-1.46976,2.93953 -2.75299,4.78572 -3.60156,6.4828c-0.52664,1.05325 -1.82639,2.18655 -2.52109,2.88124c-0.55905,0.55906 -1.25857,3.23361 -1.44061,3.96171c-0.54511,2.18039 -2.24155,1.27941 -2.88123,0c-0.47803,-0.95596 1.39542,-3.19621 1.80075,-3.60155c0.62522,-0.62521 1.43985,-2.87971 1.80078,-3.60155c0.6976,-1.39523 1.14777,-2.29555 1.80078,-3.60156c0.63389,-1.26778 1.44922,-2.19531 1.80079,-3.60156c0.37558,-1.50241 1.25833,-2.51668 1.80078,-3.60155c0.78689,-1.57384 -0.36017,-4.63298 -0.36017,-6.12264zm194.12375,109.1271c-5.93024,-3.67003 -14.70001,5.31372 -3.9519,5.22468c4.46667,2.42791 8.77148,-1.60382 3.9519,-5.22468zm-138.65985,-109.1271c-2.37482,7.21012 -25.88577,10.78048 -13.14935,18.35892c5.87872,1.09593 5.10556,-7.44288 8.8804,-1.25859c5.78396,1.28172 12.87576,-10.6958 12.99527,-0.79569c7.31085,5.58634 17.15643,-6.56547 4.8742,-6.88387c-5.83929,0.66506 -15.71643,-1.10429 -5.53692,-5.42921c0.25781,-3.73209 -5.96143,-2.18493 -8.0636,-3.99156zm-18.36789,33.49445c-11.54178,-0.79464 -0.66391,13.98357 2.1835,2.05036c5.38544,10.64494 10.53482,-9.12371 0.95444,-3.33531c0.02542,2.67211 -1.86206,2.50024 -3.13794,1.28495zm17.28744,-5.04217c-2.96643,-11.38884 22.37073,-5.06265 7.62354,0.68177c-6.1792,1.97228 -9.9917,10.9676 -0.51868,5.42042c6.29792,-1.72715 16.23566,-0.03862 9.70056,-5.68299c16.88196,-2.05687 1.08326,9.17622 -4.56707,11.36811c-6.81598,1.63023 -8.24994,2.19661 -0.96576,5.433c-1.54029,3.64432 -9.46057,3.93488 -6.79468,-1.51631c-4.72278,-2.88087 -16.72482,10.05154 -12.04114,-0.93764c5.63129,-2.5083 6.315,-9.46788 7.56323,-14.76636zm20.16877,35.29525c0.51117,3.17477 3.71264,7.25887 5.40228,3.45947c0.76599,5.24705 6.64831,3.04791 1.86768,7.54124c0.92028,1.93378 -1.86786,3.80305 0.19897,8.04446c-5.60809,6.439 4.69153,5.76998 3.58966,0.03229c3.95087,7.27008 -0.41174,-5.34239 6.58899,0.73108c2.37335,-6.14658 -8.74664,-5.5742 -5.76245,-12.60545c-5.49481,-1.04123 -5.89868,-16.15368 -11.88513,-7.20309zm-81.75531,7.92342c-11.9928,1.52412 3.056,10.39778 0,0zm-116.33023,40.33739c6.46133,-1.7682 3.88989,9.75111 11.3663,2.8759c7.41623,-2.13329 18.01571,-3.33423 18.16647,-11.87978c7.68662,0.16394 25.16473,-10.29376 21.98978,-13.54101c-10.0759,4.15867 -19.54181,10.71536 -30.94333,9.5543c-10.88193,9.82802 -21.78067,-5.36306 -31.73862,4.08806c3.34885,2.07546 21.03699,-2.40419 10.79437,5.77118l0.04056,1.06512l0.32447,2.06623l0,0z" stroke-opacity="0.660714" stroke-width="1px" fill-rule="evenodd" fill="#f6f6f6"/>
   <path id="svg_10" d="m480.978337,25.040491c4.2026,1.35632 10.42123,2.48178 12.29214,6.64334c0.12808,3.00436 -0.9798,5.84141 -2.10446,8.5292c1.19095,3.44483 6.63202,5.66188 4.61993,10.39269c-1.06512,4.66621 -7.89993,-1.79827 -8.79913,4.10193c-1.26718,4.63647 -0.52148,9.6383 -2.17288,14.22484c-1.02231,5.23816 1.52917,11.52467 -2.29471,15.97779c-2.69574,2.73443 -8.22995,3.16002 -7.11639,8.36684c1.58212,4.40333 -1.7251,7.70813 -5.77955,8.97996c-2.28796,2.5776 -9.41436,4.87257 -5.8493,-0.66088c2.40643,-2.75873 8.4801,-5.64722 4.55393,-9.91365c-2.39972,-3.91423 5.24392,-3.3719 5.79553,-7.21834c2.4946,-1.078 3.80215,-6.94786 -0.34854,-4.95037c-3.12592,3.27556 -6.67337,6.22881 -10.29996,8.91093c-1.54877,4.40051 -4.60126,7.51896 -8.17587,10.28007c-2.18909,3.48228 0.11935,11.03649 -6.28672,10.30205c-4.5758,-0.07962 -6.77734,4.49846 -10.08615,6.76924c-4.30578,2.18299 -2.71518,-3.63869 -2.5339,-5.67024c-3.94074,-0.89524 -1.87476,-7.31927 1.23819,-6.55101c0.47293,3.1744 3.8266,2.87845 4.44198,-0.29477c2.4675,-2.90506 3.7851,-7.16312 7.67984,-8.555c3.53769,-1.56036 6.43775,-4.15785 9.92328,-5.82415c4.31427,-2.52945 6.57236,-7.16537 9.49958,-10.9708c2.89202,-2.48423 7.13549,-3.93841 8.15127,-8.04757c1.5296,-4.15057 2.32581,-8.58256 4.41391,-12.48626c0.18512,-3.1166 -3.09595,-5.91122 -0.31576,-9.03604c1.89206,-4.22228 1.52173,-9.77261 -2.17368,-12.92896c-2.33752,-1.92472 -4.7456,-6.99717 -0.18616,-7.70154c1.11582,-0.36697 2.27192,-1.36734 1.91358,-2.6693zm-71.59754,87.86616c-3.83581,1.22234 -3.32239,6.97604 -8.46063,5.8571c-4.92248,2.63138 -9.25174,7.46034 -15.16458,7.53355c-5.84833,-1.09972 -9.49912,4.4099 -14.93308,4.99432c-4.40768,2.14116 -5.74932,7.66466 -11.62832,7.16446c-5.62409,2.22351 -10.60047,5.68956 -16.54498,7.05488c-4.65259,1.44606 -10.36545,-0.88119 -14.30338,2.69092c-1.38818,5.95311 -8.97757,4.60332 -12.60547,9.00391c-3.31723,4.7798 0.77863,9.91798 1.2638,14.95024c-1.94248,5.1981 -8.10059,1.259 -11.93195,2.21596c-4.0372,3.52204 -5.96765,8.9376 -9.12372,13.31057c-5.29071,3.69486 -6.12314,-5.86484 -0.37683,-5.2659c6.18314,-2.12658 6.89444,-9.9872 13.15454,-12.01541c7.25919,-0.43986 4.44525,-7.79475 3.05246,-12.11502c2.26993,-4.95816 10.09494,-3.88966 12.2453,-9.36403c0.40866,-4.71435 2.78937,-9.3966 8.28357,-6.48282c5.15726,-0.82103 8.57163,-6.2749 14.24304,-5.10554c5.90799,-1.03934 11.11304,-4.58814 16.57401,-7.06159c5.54034,-3.23307 12.23816,-3.73158 17.37854,-7.79835c5.19375,-1.06255 9.95764,-3.31512 14.65698,-5.87838c4.55496,-1.11714 4.17685,-6.50919 2.68756,-9.64589c2.02271,-3.26846 7.77374,-1.39423 3.60971,1.99532c-1.92581,3.64887 2.48819,7.5963 5.56882,3.79293c0.78973,-0.19945 1.5809,0.04544 2.35461,0.16877zm-126.41455,20.88901c0.47955,2.26203 1.50626,4.59236 0.81506,6.92369c-1.43591,1.94324 -4.13388,1.60539 -6.22906,1.30609c-1.95468,-0.53462 -5.85256,1.86589 -3.35211,3.68122c1.99563,0.71754 4.28393,0.76217 6.37295,0.46165c2.12888,-0.94794 3.88071,1.07886 2.68918,3.0365c-0.6991,1.86104 -0.80386,4.27727 -2.63248,5.44319c-2.55813,0.86804 -5.31018,0.13108 -7.94925,0.40253c-4.58232,0.25793 -9.16926,0.50491 -13.75903,0.32564c-2.87233,-0.01309 -5.75418,0.31256 -8.61357,0.29071c-2.34495,-0.61835 -3.21593,-3.14156 -4.86195,-4.62628c-1.64901,-1.11162 -4.13515,-0.94765 -5.2347,-2.83405c-0.04878,-2.15056 2.48151,-2.48527 4.039,-3.03687c2.51387,-1.01821 5.22168,-1.41156 7.76207,-2.32656c1.7834,-0.74991 3.38031,-1.96431 5.35398,-2.18537c1.70811,-0.32133 3.44932,-0.76163 4.84983,-1.83931c4.98178,-2.55076 10.63835,-3.15434 16.10082,-3.91777c1.58246,-0.06601 3.42377,0.11543 4.64926,-1.10501zm264.7142,-6.48278c1.92994,0.5452 4.2096,1.35713 5.07679,3.3289c0.61743,1.63318 0.0473,3.80513 -2.09699,3.54602c-1.18347,0.09501 -3.69379,0.19942 -2.28601,1.96553c0.77234,1.33339 3.16479,3.86473 0.8081,4.86638c-1.81964,0.84275 -3.82916,0.39138 -5.60247,-0.32022c-1.7923,-0.40958 -4.00428,-1.15841 -4.43592,-3.20162c-0.28058,-1.9705 -1.26324,-3.69859 -3.4234,-3.91926c-1.36932,-0.74657 -3.68786,-1.77405 -2.80646,-3.74465c0.68445,-2.01063 -1.91107,-2.61526 -2.96521,-3.82234c-1.46106,-0.94167 -2.09219,-2.6517 -2.90756,-4.10458c-0.39319,-1.71856 -0.11432,-3.64754 -1.33258,-5.11179c-1.06909,-1.4734 -1.70795,-3.41386 -0.32645,-4.93228c1.00293,-1.41227 2.56775,-2.91224 1.87766,-4.82377c-0.36426,-1.75562 -1.54263,-3.37951 -1.54523,-5.15018c0.55979,-2.56519 3.28641,-0.36221 4.59128,0.35955c1.95807,0.97486 1.81067,3.74493 3.81323,4.67405c1.75043,0.87324 2.58972,2.87955 4.44757,3.60226c1.50165,1.07907 2.52527,2.82346 2.97333,4.59583c0.40625,1.99794 -0.63006,4.31591 0.8277,6.03543c1.31091,1.83312 3.38391,2.92191 4.78516,4.64834c0.15289,0.51063 0.32556,1.01492 0.52746,1.5084zm-18.00775,-14.40623c1.67267,1.48889 2.89356,3.45769 3.22412,5.69323c0.51203,2.04398 0.86835,4.19406 2.18415,5.9124c0.63659,1.51881 1.82251,2.65466 3.07135,3.67668c1.36902,-0.93586 0.0791,-3.58143 0.66089,-5.13857c0.42565,-0.78504 0.38183,-3.64718 -0.53052,-1.66253c-0.3584,1.54995 -2.38471,3.50027 -3.1756,1.10003c-0.98474,-1.71061 -0.95001,-3.69873 -1.13464,-5.5933c-0.37037,-2.15207 -2.49195,-2.82601 -4.08716,-3.8313l-0.21259,-0.15664l0,0zm99.76306,37.8163c-9.47973,0.10297 -20.22332,-0.56916 -12.75274,-12.36256c-1.80481,-15.59418 -9.22248,4.58566 -7.59857,9.47269c-13.29901,-0.6852 -4.46418,-20.07447 4.86462,-20.88037c-1.125,-11.35516 26.61353,1.53382 11.75324,5.82846c-7.75818,5.25422 9.13543,10.69464 3.73345,17.94178zm-18.36792,-50.06159c-5.06628,-9.85522 -18.1325,1.17774 -24.4906,-9.72419c-4.48437,-9.51096 -7.10388,-0.61777 -0.72027,3.24139c7.57342,1.98919 6.73773,17.6689 13.76904,15.33865c0.29346,-9.81358 8.98682,-1.53956 11.44183,-8.85585zm64.10767,29.1726c0.16888,6.98517 -16.23956,12.09549 -12.96558,0c4.65064,1.82257 9.24622,-2.89707 12.96558,0zm-9.00391,-3.2414c-12.12091,3.01623 -0.03485,-11.40554 0,0zm-9.72418,2.16093c-1.62939,-4.59053 -9.74225,-4.16566 -4.682,2.16093c1.35339,1.55254 5.79418,0.30745 4.682,-2.16093zm-3.24139,10.80467c-3.54785,1.888 -5.51373,6.21222 -7.56323,7.56325c3.24865,2.42469 7.65704,-5.52126 7.56323,-7.56325zm72.39129,20.52887c-12.25824,0.69656 3.70954,17.35408 -5.42413,17.98288c-1.49231,-6.50496 -8.42529,-21.03633 5.42413,-17.98288zm19.44837,-3.60156c0.40436,10.90147 -14.23676,16.54609 -15.08057,26.90058c6.83533,2.43496 8.72034,-15.99127 12.84198,-12.10136c-1.07165,-4.57225 11.45294,-13.89471 2.23859,-14.79922zm6.84296,-0.36014c1.453,6.98167 -6.9394,13.93956 -9.23029,20.8103c-7.08075,2.8915 4.8941,10.49007 3.1076,0.07871c1.36866,-8.11174 6.46814,-9.85022 4.8877,-1.33675c3.09344,-3.25839 3.64758,-25.19461 7.64966,-12.51805c6.46484,-5.05316 -0.64435,-9.67279 -6.41468,-7.03421l0.00001,0zm5.04217,10.80464c-2.98523,4.73373 1.77893,13.16934 2.64978,3.02817c-0.15076,-1.46686 -1.4331,-2.44295 -2.64978,-3.02817zm34.57489,14.40622c-1.5379,9.77893 10.75543,-1.51816 13.81702,7.67294c1.5888,-7.30733 -7.6529,-11.19125 -13.81702,-7.67294zm59.06549,48.98114c6.07117,-8.46349 -10.80243,-9.02486 -0.49084,-15.92427c8.39196,-0.23786 16.229,3.391 10.40875,10.31817c1.05035,6.65172 13.26117,7.55143 6.58557,15.45349c-6.45868,-0.63041 -5.87549,-6.27929 -9.30035,-10.5677c-0.91388,-9.34769 -3.13062,-2.59932 -3.62629,2.21289c-1.31378,0.53038 -2.62768,-1.01024 -3.57684,-1.49258zm-399.05221,-33.1343c-0.61417,-6.60151 -1.4856,-14.24621 -7.8436,-17.95262c-1.47595,-18.45291 12.13766,4.63453 16.66739,10.02919c12.65255,2.44413 11.20883,16.67267 25.39096,20.16872c9.52612,8.62576 22.54242,10.57063 33.98712,13.27321c13.13007,4.52 18.53217,2.02489 12.47296,-11.8326c7.69751,-12.63501 27.45685,-3.20547 34.21472,6.48281c12.57672,4.17962 0.23053,8.7606 -4.682,1.44062c-5.65692,-10.9803 -7.78986,-0.71283 -6.3266,5.52404c-18.61908,4.85753 2.31006,7.54609 9.86706,9.19525c-5.73993,-10.51572 10.09564,-7.92957 17.34857,-0.31308c16.62146,7.29063 -7.57562,-10.92365 3.07898,-13.39693c-0.49377,-8.43245 -27.44482,-13.98739 -6.32037,-15.77565c11.34021,1.2916 21.86957,10.85902 15.42139,21.69891c-8.01422,16.84267 17.20263,15.80957 10.14965,-0.8099c-8.63281,-11.82585 5.69983,-6.10024 10.79798,-2.267c2.39636,4.89539 24.30859,7.69653 12.84625,10.61702c-13.33423,-9.94237 1.46131,5.63513 8.04944,6.0562c8.09473,9.37654 10.54047,2.82287 16.96582,-3.9059c2.97479,5.90143 13.46112,4.91321 5.70276,-3.24907c0.37848,-15.96548 -18.11475,12.67513 -12.58423,-4.37001c14.68451,-5.75328 -4.7652,-7.98686 -5.85242,-16.86064c-2.38116,-13.78453 11.38208,-4.91299 13.13391,2.35271c15.79187,13.04153 -5.96325,-24.28594 7.63727,-9.31775c-1.4928,18.15864 21.19562,3.35812 19.29602,20.22413c12.7453,-1.00764 29.33124,3.7704 43.5788,5.40235l-2.89978,1.84874c-12.44641,-0.371 -25.24976,-1.57405 -37.33722,2.17662c-9.97077,2.77157 -19.99793,5.40024 -29.81842,8.46684c-11.06848,7.33029 -24.9848,3.28961 -37.31207,3.21549c-10.86133,-0.39756 -21.53211,-1.83504 -31.81025,-5.51879c-17.95416,-5.61914 -36.57891,-8.42569 -54.93664,-12.31264c-12.11844,-2.60682 -24.32843,-5.35447 -35.28558,-11.39204c-8.2323,-3.68739 -16.16584,-8.01414 -24.47626,-11.37894c-6.82352,-4.50422 -17.43726,-12.70594 -23.93527,-3.4994c-8.91074,4.32811 -19.10465,4.24206 -26.66043,11.45441c-5.40329,9.29634 -14.43662,14.64057 -25.5004,12.46807c-10.24298,2.62046 -20.41116,0.06385 -30.48258,-2.02973c-11.4226,-2.47037 -22.44369,-6.52929 -34.19644,-7.2887c-10.39523,-2.19428 -20.95468,-3.31285 -31.51059,-4.397c-11.02386,-1.39139 -22.87451,0.4293 -32.93992,-5.25168c-1.4217,-2.43959 -2.15715,-3.79158 1.70442,-3.57294c8.90375,0.5788 18.89099,-4.5825 20.52887,6.84297c17.97842,0.56256 36.62359,-3.44755 53.07077,4.28931c7.29388,-4.91232 7.17883,-16.64777 18.96033,-9.33148c2.86999,-1.29489 -3.42167,-6.98984 5.76248,-7.20311c0.44797,-6.97743 9.62155,2.31134 11.17196,-4.84441c-1.70355,9.92093 19.21421,19.5904 5.47614,6.68141c-5.55866,-12.96386 7.86902,-4.18786 5.99441,3.704c3.95014,8.6091 31.66837,7.53601 13.85962,-0.72708c1.59546,-11.98201 24.03879,10.27472 22.20319,-5.53424c1.61417,-4.48207 14.98254,-0.62059 5.76251,5.40233c0.43103,1.75145 2.60056,1.96948 3.60153,3.24139m-309.01336,14.9915c-0.98996,-3.84895 -6.15668,-5.75195 -3.12608,-7.85997c3.78658,-0.37442 7.57954,1.93985 11.31265,0.3555c5.17986,-1.60828 10.73937,-0.43623 15.90557,-2.16451c6.74662,-1.67805 13.78112,-0.75473 20.65717,-1.00064c3.88696,0.36446 7.47559,-1.38794 11.03342,-2.61555c1.53151,-0.91646 4.79793,-4.27086 0.78778,-3.52594c-3.86676,0.27928 -7.87149,1.19971 -11.61424,-0.308c-3.66423,-1.64365 -5.3872,4.14531 -9.14345,2.56412c-4.15328,-1.39675 -8.50305,-2.07117 -12.89038,-1.87786c-5.70488,-0.45663 -11.02512,2.05086 -16.66306,2.29683c-4.82937,0.34957 -9.41772,2.42855 -14.33083,2.02455c-1.56774,0.2502 -6.25965,-0.15374 -2.7244,-1.78984c3.96175,-1.96649 8.59169,-0.16444 12.72894,-1.48051c3.78182,-0.8609 7.8634,0.42473 11.49689,-1.0137c0.3973,-2.39946 -4.95387,-1.13738 -6.72209,-1.47722c-5.62522,-0.00952 -11.35982,-0.32373 -16.79223,1.44063c-2.21259,0.84002 -2.52381,-0.18947 -0.27083,-0.9171c3.08107,-1.26094 7.38907,-2.08091 7.47392,-6.28601c-4.8519,1.10305 -9.14148,4.16897 -14.19672,4.55708c-3.85157,1.00474 -7.83047,1.23681 -11.73447,1.92572c-1.66953,1.8631 -3.42374,5.29748 -3.22616,7.33606c4.47326,2.40925 26.7615,9.98591 32.0386,9.81636z" stroke-opacity="0.660714" stroke-width="1px" fill-rule="evenodd" fill="#ffffff"/>
  </g>
 </g>
</svg>